<svg width="209" height="129" viewBox="0 0 209 129" fill="none" xmlns="http://www.w3.org/2000/svg">
<g filter="url(#filter0_d_4_2)">
<path d="M4.04022 0.0426788H204.005V120.043H4.04022V0.0426788Z" fill="black"/>
</g>
<path d="M68.5897 58.2222V29.5556H50.9886C50.8165 29.5556 50.6762 29.7052 50.6762 29.8889C50.6762 29.9034 50.6764 29.9163 50.677 29.9274L57.4431 39.6134L57.5011 39.6958C58.405 40.9766 59.2164 42.3859 59.2164 45.5187C59.2164 49.1107 57.9568 52.3859 55.6695 54.7407C53.4886 56.9858 50.581 58.2222 47.4823 58.2222H9.8501V42.4444H40.9209C41.0776 42.4444 41.0945 42.2113 41.0945 42.1111L41.0943 42.0866C40.2422 41.0091 35.5043 35.017 34.5437 33.7871L34.5061 33.739L34.4707 33.6889C33.5706 32.4087 32.7627 30.993 32.7627 27.7778C32.7627 24.1873 33.9997 20.8901 36.2458 18.4938C38.4247 16.1691 41.3303 14.8889 44.4273 14.8889H100.459V29.5556H83.3787V58.2222H68.5897ZM126.282 58.2222L124.615 52.6667H110.672L109.005 58.2222H94.393L107.541 14.8889H127.529L140.911 58.2222H126.282ZM120.389 39.5556L117.643 30.8684L114.898 39.5556H120.389ZM173.779 58.2222C172.052 58.2222 170.487 57.5641 169.127 56.2662C166.817 54.0612 162.815 50.0474 159.823 47.0272V58.2222H144.41V14.8889H170.863C178.329 14.8889 184.402 21.3687 184.402 29.3333C184.402 34.5423 181.748 39.2559 177.649 41.7943C178.006 42.2013 178.31 42.4444 178.987 42.4444H198.15V58.2222H173.779ZM167.843 32.2222C168.934 32.2222 169.822 31.2753 169.822 30.1111C169.822 28.947 168.934 28 167.843 28H159.823V32.2222H167.843ZM45.599 104L39.7927 85.8065L33.9864 104H23.8103L10.5449 60.6667H25.4785L28.892 72.0473L32.5901 60.6667H46.9954L50.6935 72.0473L54.1069 60.6667H69.0406L55.7752 104H45.599ZM94.6206 104L92.9542 98.4444H79.0106L77.3443 104H62.7319L75.8798 60.6667H95.8677L109.251 104H94.6206ZM88.7282 85.3333L85.9824 76.6461L83.2366 85.3333H88.7282V85.3333ZM142.535 104C140.808 104 139.243 103.342 137.883 102.044C135.573 99.8389 131.571 95.8251 128.579 92.8049V104H113.165V60.6667H139.619C147.084 60.6667 153.158 67.1463 153.158 75.1111C153.158 80.32 150.504 85.0337 146.404 87.5721C146.762 87.9791 147.066 88.2222 147.742 88.2222H169.856C170.013 88.2222 170.03 87.9891 170.03 87.8889C170.03 87.8801 170.03 87.872 170.03 87.8643C169.178 86.7876 164.44 80.7948 163.479 79.5649L163.442 79.5168L163.406 79.4667C162.506 78.1864 161.698 76.7707 161.698 73.5556C161.698 69.9651 162.935 66.6679 165.181 64.2714C167.36 61.9469 170.266 60.6667 173.363 60.6667H198.15V75.3333H179.924C179.752 75.3333 179.612 75.483 179.612 75.6667C179.612 75.6813 179.612 75.694 179.612 75.7052L186.379 85.3912L186.437 85.4736C187.341 86.7542 188.152 88.1636 188.152 91.2962C188.152 94.8883 186.892 98.1636 184.605 100.518C182.424 102.763 179.517 104 176.418 104H142.535ZM136.598 78C137.69 78 138.577 77.0531 138.577 75.8889C138.577 74.7248 137.69 73.7778 136.598 73.7778H128.579V78H136.598Z" fill="#FFAB33"/>
<path d="M98.1677 17.3333H44.4273C39.4282 17.3333 35.054 21.5556 35.054 27.7778C35.054 30.4444 35.6788 31.3333 36.3037 32.2222C37.3452 33.5556 42.9692 40.6667 42.9692 40.6667C43.146 40.9182 43.3858 41.3333 43.3858 42.1111C43.3858 43.6453 42.359 44.8889 40.9209 44.8889H12.1414V55.7778H47.4823C52.4815 55.7778 56.9251 51.7409 56.9251 45.5187C56.9251 42.852 56.2308 41.9631 55.6059 41.0742L48.8015 31.3333C48.6249 31.0819 48.3849 30.6667 48.3849 29.8889C48.3849 28.3548 49.5506 27.1111 50.9886 27.1111H70.8809V55.7778H81.0874V27.1111H98.1677V17.3333ZM125.871 17.3333H109.207L97.5428 55.7778H107.333L108.999 50.2222H126.288L127.954 55.7778H137.744L125.871 17.3333ZM111.707 42L117.643 23.2183L123.58 42H111.707ZM178.987 44.8889C177.32 44.8889 176.457 44.031 175.862 43.3333L173.779 40.8889C178.564 39.509 182.111 34.8747 182.111 29.3333C182.111 22.706 177.075 17.3333 170.863 17.3333H146.701V55.7778H157.532V41.3333C157.532 41.3333 166.697 50.6667 170.655 54.4444C171.094 54.8636 172.113 55.7778 173.779 55.7778H195.859V44.8889H178.987ZM157.532 25.5556H167.843C170.201 25.5556 172.113 27.5951 172.113 30.1111C172.113 32.6272 170.201 34.6667 167.843 34.6667H157.532V25.5556ZM55.7794 63.1111L50.7803 79.7778L45.3646 63.1111H34.2208L28.8051 79.7778L23.806 63.1111H13.7036L25.4723 101.556H32.3461L39.7927 78.2222L47.2393 101.556H54.1131L65.8818 63.1111H55.7794ZM94.2101 63.1111H77.5464L65.8818 101.556H75.6717L77.3381 96H94.6267L96.2931 101.556H106.083L94.2101 63.1111ZM80.046 87.7778L85.9824 68.9962L91.9188 87.7778H80.046ZM179.924 72.8889H195.859V63.1111H173.363C168.364 63.1111 163.989 67.3333 163.989 73.5556C163.989 76.2222 164.614 77.1111 165.239 78C166.281 79.3333 171.905 86.4444 171.905 86.4444C172.081 86.696 172.321 87.1111 172.321 87.8889C172.321 89.4231 171.295 90.6667 169.856 90.6667H147.742C146.076 90.6667 145.212 89.8088 144.618 89.1111L142.535 86.6667C147.32 85.2867 150.867 80.6523 150.867 75.1111C150.867 68.4838 145.831 63.1111 139.619 63.1111H115.456V101.556H126.288V87.1111C126.288 87.1111 135.453 96.4444 139.41 100.222C139.85 100.641 140.868 101.556 142.535 101.556H176.418C181.417 101.556 185.86 97.5184 185.86 91.2962C185.86 88.6296 185.166 87.7407 184.541 86.8518L177.737 77.1111C177.56 76.8597 177.32 76.4444 177.32 75.6667C177.32 74.1326 178.486 72.8889 179.924 72.8889ZM136.598 80.4444H126.288V71.3333H136.598C138.957 71.3333 140.868 73.3729 140.868 75.8889C140.868 78.4049 138.957 80.4444 136.598 80.4444Z" fill="black"/>
<defs>
<filter id="filter0_d_4_2" x="0.0402222" y="0.0426788" width="207.964" height="128" filterUnits="userSpaceOnUse" color-interpolation-filters="sRGB">
<feFlood flood-opacity="0" result="BackgroundImageFix"/>
<feColorMatrix in="SourceAlpha" type="matrix" values="0 0 0 0 0 0 0 0 0 0 0 0 0 0 0 0 0 0 127 0" result="hardAlpha"/>
<feOffset dy="4"/>
<feGaussianBlur stdDeviation="2"/>
<feComposite in2="hardAlpha" operator="out"/>
<feColorMatrix type="matrix" values="0 0 0 0 0 0 0 0 0 0 0 0 0 0 0 0 0 0 0.25 0"/>
<feBlend mode="normal" in2="BackgroundImageFix" result="effect1_dropShadow_4_2"/>
<feBlend mode="normal" in="SourceGraphic" in2="effect1_dropShadow_4_2" result="shape"/>
</filter>
</defs>
</svg>
