<svg width="201" height="121" viewBox="0 0 201 121" fill="none" xmlns="http://www.w3.org/2000/svg">
<path d="M0.0402222 0.0426788H200.005V120.043H0.0402222V0.0426788Z" fill="#0F0F0F"/>
<path d="M64.5897 58.2222V29.5556H46.9886C46.8165 29.5556 46.6762 29.7052 46.6762 29.8889C46.6762 29.9034 46.6764 29.9163 46.677 29.9274L53.4431 39.6134L53.5011 39.6958C54.405 40.9766 55.2164 42.3859 55.2164 45.5187C55.2164 49.1107 53.9568 52.3859 51.6695 54.7407C49.4886 56.9858 46.581 58.2222 43.4823 58.2222H5.8501V42.4444H36.9209C37.0776 42.4444 37.0945 42.2113 37.0945 42.1111L37.0943 42.0866C36.2422 41.0091 31.5043 35.017 30.5437 33.7871L30.5061 33.739L30.4707 33.6889C29.5706 32.4087 28.7627 30.993 28.7627 27.7778C28.7627 24.1873 29.9997 20.8901 32.2458 18.4938C34.4247 16.1691 37.3303 14.8889 40.4273 14.8889H96.459V29.5556H79.3787V58.2222H64.5897ZM122.282 58.2222L120.615 52.6667H106.672L105.005 58.2222H90.393L103.541 14.8889H123.529L136.911 58.2222H122.282ZM116.389 39.5556L113.643 30.8684L110.898 39.5556H116.389ZM169.779 58.2222C168.052 58.2222 166.487 57.5641 165.127 56.2662C162.817 54.0612 158.815 50.0474 155.823 47.0272V58.2222H140.41V14.8889H166.863C174.329 14.8889 180.402 21.3687 180.402 29.3333C180.402 34.5423 177.748 39.2559 173.649 41.7943C174.006 42.2013 174.31 42.4444 174.987 42.4444H194.15V58.2222H169.779ZM163.843 32.2222C164.934 32.2222 165.822 31.2753 165.822 30.1111C165.822 28.947 164.934 28 163.843 28H155.823V32.2222H163.843ZM41.599 104L35.7927 85.8065L29.9864 104H19.8103L6.54487 60.6667H21.4785L24.892 72.0473L28.5901 60.6667H42.9954L46.6935 72.0473L50.1069 60.6667H65.0406L51.7752 104H41.599ZM90.6206 104L88.9542 98.4444H75.0106L73.3443 104H58.7319L71.8798 60.6667H91.8677L105.251 104H90.6206ZM84.7282 85.3333L81.9824 76.6461L79.2366 85.3333H84.7282V85.3333ZM138.535 104C136.808 104 135.243 103.342 133.883 102.044C131.573 99.8389 127.571 95.8251 124.579 92.8049V104H109.165V60.6667H135.619C143.084 60.6667 149.158 67.1463 149.158 75.1111C149.158 80.32 146.504 85.0337 142.404 87.5721C142.762 87.9791 143.066 88.2222 143.742 88.2222H165.856C166.013 88.2222 166.03 87.9891 166.03 87.8889C166.03 87.8801 166.03 87.872 166.03 87.8643C165.178 86.7876 160.44 80.7948 159.479 79.5649L159.442 79.5168L159.406 79.4667C158.506 78.1864 157.698 76.7707 157.698 73.5556C157.698 69.9651 158.935 66.6679 161.181 64.2714C163.36 61.9469 166.266 60.6667 169.363 60.6667H194.15V75.3333H175.924C175.752 75.3333 175.612 75.483 175.612 75.6667C175.612 75.6813 175.612 75.694 175.612 75.7052L182.379 85.3912L182.437 85.4736C183.341 86.7542 184.152 88.1636 184.152 91.2962C184.152 94.8883 182.892 98.1636 180.605 100.518C178.424 102.763 175.517 104 172.418 104H138.535ZM132.598 78C133.69 78 134.577 77.0531 134.577 75.8889C134.577 74.7248 133.69 73.7778 132.598 73.7778H124.579V78H132.598Z" fill="#FFAB33"/>
<path d="M94.1677 17.3333H40.4273C35.4282 17.3333 31.054 21.5556 31.054 27.7778C31.054 30.4444 31.6788 31.3333 32.3037 32.2222C33.3452 33.5556 38.9692 40.6667 38.9692 40.6667C39.146 40.9182 39.3858 41.3333 39.3858 42.1111C39.3858 43.6453 38.359 44.8889 36.9209 44.8889H8.14136V55.7778H43.4823C48.4815 55.7778 52.9251 51.7409 52.9251 45.5187C52.9251 42.852 52.2308 41.9631 51.6059 41.0742L44.8015 31.3333C44.6249 31.0819 44.3849 30.6667 44.3849 29.8889C44.3849 28.3548 45.5506 27.1111 46.9886 27.1111H66.8809V55.7778H77.0874V27.1111H94.1677V17.3333ZM121.871 17.3333H105.207L93.5428 55.7778H103.333L104.999 50.2222H122.288L123.954 55.7778H133.744L121.871 17.3333ZM107.707 42L113.643 23.2183L119.58 42H107.707ZM174.987 44.8889C173.32 44.8889 172.457 44.031 171.862 43.3333L169.779 40.8889C174.564 39.509 178.111 34.8747 178.111 29.3333C178.111 22.706 173.075 17.3333 166.863 17.3333H142.701V55.7778H153.532V41.3333C153.532 41.3333 162.697 50.6667 166.655 54.4444C167.094 54.8636 168.113 55.7778 169.779 55.7778H191.859V44.8889H174.987ZM153.532 25.5556H163.843C166.201 25.5556 168.113 27.5951 168.113 30.1111C168.113 32.6272 166.201 34.6667 163.843 34.6667H153.532V25.5556ZM51.7794 63.1111L46.7803 79.7778L41.3646 63.1111H30.2208L24.8051 79.7778L19.806 63.1111H9.70358L21.4723 101.556H28.3461L35.7927 78.2222L43.2393 101.556H50.1131L61.8818 63.1111H51.7794ZM90.2101 63.1111H73.5464L61.8818 101.556H71.6717L73.3381 96H90.6267L92.2931 101.556H102.083L90.2101 63.1111ZM76.046 87.7778L81.9824 68.9962L87.9188 87.7778H76.046ZM175.924 72.8889H191.859V63.1111H169.363C164.364 63.1111 159.989 67.3333 159.989 73.5556C159.989 76.2222 160.614 77.1111 161.239 78C162.281 79.3333 167.905 86.4444 167.905 86.4444C168.081 86.696 168.321 87.1111 168.321 87.8889C168.321 89.4231 167.295 90.6667 165.856 90.6667H143.742C142.076 90.6667 141.212 89.8088 140.618 89.1111L138.535 86.6667C143.32 85.2867 146.867 80.6523 146.867 75.1111C146.867 68.4838 141.831 63.1111 135.619 63.1111H111.456V101.556H122.288V87.1111C122.288 87.1111 131.453 96.4444 135.41 100.222C135.85 100.641 136.868 101.556 138.535 101.556H172.418C177.417 101.556 181.86 97.5184 181.86 91.2962C181.86 88.6296 181.166 87.7407 180.541 86.8518L173.737 77.1111C173.56 76.8597 173.32 76.4444 173.32 75.6667C173.32 74.1326 174.486 72.8889 175.924 72.8889ZM132.598 80.4444H122.288V71.3333H132.598C134.957 71.3333 136.868 73.3729 136.868 75.8889C136.868 78.4049 134.957 80.4444 132.598 80.4444Z" fill="black"/>
</svg>
