<svg width="60" height="60" viewBox="0 0 60 60" fill="none" xmlns="http://www.w3.org/2000/svg">
<path d="M17.3564 44.2556L19.0927 45.2533L20.1618 41.5933C20.0545 41.0689 20 40.5356 20 40C20 37.9622 20.7855 36.0333 22.0873 34.7778L24.0582 27.5489L16.4091 35.5622C16.3945 35.5622 16.38 35.5556 16.3636 35.5556C14.3545 35.5556 12.7273 37.5445 12.7273 40C12.7273 42.4556 14.3545 44.4444 16.3636 44.4444C16.7109 44.4444 17.0382 44.3667 17.3564 44.2556H17.3564ZM14.5455 40C14.5455 38.7756 15.3618 37.7778 16.3636 37.7778C17.3655 37.7778 18.1818 38.7756 18.1818 40C18.1818 41.2244 17.3655 42.2222 16.3636 42.2222C15.3618 42.2222 14.5455 41.2244 14.5455 40ZM25.4545 60V56.6667L24.3182 55.5556H17.5L16.3636 56.6667V60H25.4545ZM47.2727 60V56.6667L46.1364 55.5556H39.3182L38.1818 56.6667V60H47.2727ZM50.9091 60H60V56.6667L58.8636 55.5556H52.0455L50.9091 56.6667V60ZM31.9345 55.5356L34.3927 56.9822L38.3327 46.9689L35.8745 45.5244L34.5636 46.2933L31.6073 53.8022L31.9345 55.5356ZM21.8182 10H23.6364V18.8889H21.8182V10ZM57.8545 53.3333L55.8927 42.1467C56.1836 41.5067 56.3636 40.7822 56.3636 40C56.3636 38.88 56.0127 37.8711 55.4545 37.0889V31.6667L57.6618 22.2222H29.0909C27.0818 22.2222 25.4545 24.2111 25.4545 26.6667C25.4545 27.2822 25.5582 27.8689 25.7436 28.4022L23.6218 36.18C22.5473 36.9533 21.8182 38.3667 21.8182 40C21.8182 40.58 21.9145 41.1289 22.08 41.6356L18.6618 53.3333H24.4545L25.72 49L30.3964 51.7556L32.7618 45.7467L28.0673 43.0445C28.6927 42.2511 29.0909 41.1911 29.0909 40C29.0909 39.3844 28.9873 38.7978 28.8018 38.2644L30.5309 31.9244L35.9091 26.6667H44.5455L50 31.1111V36.7356V37.0889C49.4418 37.8711 49.0909 38.88 49.0909 40C49.0909 41.4911 49.6964 42.8045 50.62 43.6089L52.2873 53.3333H57.8545V53.3333ZM25.4545 42.2222C24.4527 42.2222 23.6364 41.2244 23.6364 40C23.6364 38.7756 24.4527 37.7778 25.4545 37.7778C26.4564 37.7778 27.2727 38.7756 27.2727 40C27.2727 41.2244 26.4564 42.2222 25.4545 42.2222ZM29.0909 28.8889C28.0891 28.8889 27.2727 27.8911 27.2727 26.6667C27.2727 25.4422 28.0891 24.4444 29.0909 24.4444C30.0927 24.4444 30.9091 25.4422 30.9091 26.6667C30.9091 27.8911 30.0927 28.8889 29.0909 28.8889ZM52.7273 24.4444C53.7291 24.4444 54.5455 25.4422 54.5455 26.6667C54.5455 27.8911 53.7291 28.8889 52.7273 28.8889C51.7255 28.8889 50.9091 27.8911 50.9091 26.6667C50.9091 25.4422 51.7255 24.4444 52.7273 24.4444ZM50.9091 40C50.9091 38.7756 51.7255 37.7778 52.7273 37.7778C53.7291 37.7778 54.5455 38.7756 54.5455 40C54.5455 41.2244 53.7291 42.2222 52.7273 42.2222C51.7255 42.2222 50.9091 41.2244 50.9091 40ZM14.5455 20H16.3636V8.88889H9.09091L3.63636 13.3333V16.6667H0.454546C0.203637 16.6667 0 16.9156 0 17.2222C0 17.5289 0.203635 17.7778 0.454545 17.7778H3.63636V20H0.909091C0.407273 20 0 20.4978 0 21.1111C0 21.7244 0.40727 22.2222 0.909091 22.2222H12.7273L14.5455 20ZM9.09091 18.8889C7.58545 18.8889 6.36364 17.3956 6.36364 15.5556C6.36364 13.7156 7.58545 12.2222 9.09091 12.2222C10.5964 12.2222 11.8182 13.7156 11.8182 15.5556C11.8182 17.3956 10.5964 18.8889 9.09091 18.8889V18.8889ZM34.0327 20H47.7855H58.1818V6.66667L49.0909 3L47.2727 0H34.5455L32.7273 3L25.4545 6.66667V20H34.0327ZM48.1818 36.3422V32.3L44.8491 29.5844L42.2709 35.8867C40.94 36.5467 40 38.1378 40 40C40 41.0067 40.2836 41.9267 40.7473 42.6711L40.1236 53.3333H45.5909L46.1855 43.1644C46.8545 42.36 47.2727 41.24 47.2727 40C47.2727 39.6111 47.2182 39.2422 47.1418 38.8822L48.1818 36.3422H48.1818ZM43.6364 42.2222C42.6345 42.2222 41.8182 41.2244 41.8182 40C41.8182 38.7756 42.6345 37.7778 43.6364 37.7778C44.6382 37.7778 45.4545 38.7756 45.4545 40C45.4545 41.2244 44.6382 42.2222 43.6364 42.2222ZM18.1818 10H20V18.8889H18.1818V10ZM10.9091 15.5556C10.9091 16.1449 10.7175 16.7102 10.3766 17.1269C10.0356 17.5437 9.57312 17.7778 9.09091 17.7778C8.6087 17.7778 8.14624 17.5437 7.80526 17.1269C7.46429 16.7102 7.27273 16.1449 7.27273 15.5556C7.27273 15.2637 7.31976 14.9748 7.41113 14.7051C7.5025 14.4355 7.63643 14.1906 7.80526 13.9842C7.97409 13.7779 8.17453 13.6142 8.39512 13.5025C8.61571 13.3908 8.85214 13.3333 9.09091 13.3333C9.32968 13.3333 9.56611 13.3908 9.7867 13.5025C10.0073 13.6142 10.2077 13.7779 10.3766 13.9842C10.5454 14.1906 10.6793 14.4355 10.7707 14.7051C10.8621 14.9748 10.9091 15.2637 10.9091 15.5556Z" fill="#fff"/>
</svg>
